<mxfile host="65bd71144e">
    <diagram id="PXFP-jFRFVvZ61tsCc0Y" name="PÃ¡gina-1">
        <mxGraphModel dx="642" dy="617" grid="1" gridSize="10" guides="1" tooltips="1" connect="1" arrows="1" fold="1" page="1" pageScale="1" pageWidth="827" pageHeight="1169" math="0" shadow="0">
            <root>
                <mxCell id="0"/>
                <mxCell id="1" parent="0"/>
                <mxCell id="2" value="Display" style="swimlane;fontStyle=1;align=center;verticalAlign=top;childLayout=stackLayout;horizontal=1;startSize=26;horizontalStack=0;resizeParent=1;resizeParentMax=0;resizeLast=0;collapsible=1;marginBottom=0;" vertex="1" parent="1">
                    <mxGeometry x="340" y="340" width="200" height="60" as="geometry"/>
                </mxCell>
                <mxCell id="4" value="" style="line;strokeWidth=1;fillColor=none;align=left;verticalAlign=middle;spacingTop=-1;spacingLeft=3;spacingRight=3;rotatable=0;labelPosition=right;points=[];portConstraint=eastwest;" vertex="1" parent="2">
                    <mxGeometry y="26" width="200" height="8" as="geometry"/>
                </mxCell>
                <mxCell id="5" value="+ showBanner(img: String): String" style="text;strokeColor=none;fillColor=none;align=left;verticalAlign=top;spacingLeft=4;spacingRight=4;overflow=hidden;rotatable=0;points=[[0,0.5],[1,0.5]];portConstraint=eastwest;" vertex="1" parent="2">
                    <mxGeometry y="34" width="200" height="26" as="geometry"/>
                </mxCell>
                <mxCell id="6" value="4GConnection" style="swimlane;fontStyle=1;align=center;verticalAlign=top;childLayout=stackLayout;horizontal=1;startSize=26;horizontalStack=0;resizeParent=1;resizeParentMax=0;resizeLast=0;collapsible=1;marginBottom=0;" vertex="1" parent="1">
                    <mxGeometry x="260" y="520" width="240" height="86" as="geometry"/>
                </mxCell>
                <mxCell id="7" value="- symb: String" style="text;strokeColor=none;fillColor=none;align=left;verticalAlign=top;spacingLeft=4;spacingRight=4;overflow=hidden;rotatable=0;points=[[0,0.5],[1,0.5]];portConstraint=eastwest;" vertex="1" parent="6">
                    <mxGeometry y="26" width="240" height="26" as="geometry"/>
                </mxCell>
                <mxCell id="8" value="" style="line;strokeWidth=1;fillColor=none;align=left;verticalAlign=middle;spacingTop=-1;spacingLeft=3;spacingRight=3;rotatable=0;labelPosition=right;points=[];portConstraint=eastwest;" vertex="1" parent="6">
                    <mxGeometry y="52" width="240" height="8" as="geometry"/>
                </mxCell>
                <mxCell id="9" value="+ transmit(data: String, crc: Integer): String" style="text;strokeColor=none;fillColor=none;align=left;verticalAlign=top;spacingLeft=4;spacingRight=4;overflow=hidden;rotatable=0;points=[[0,0.5],[1,0.5]];portConstraint=eastwest;" vertex="1" parent="6">
                    <mxGeometry y="60" width="240" height="26" as="geometry"/>
                </mxCell>
                <mxCell id="10" value="&lt;&lt;interface&gt;&gt;&#10;Conection" style="swimlane;fontStyle=1;align=center;verticalAlign=top;childLayout=stackLayout;horizontal=1;startSize=40;horizontalStack=0;resizeParent=1;resizeParentMax=0;resizeLast=0;collapsible=1;marginBottom=0;" vertex="1" parent="1">
                    <mxGeometry x="40" y="140" width="240" height="100" as="geometry"/>
                </mxCell>
                <mxCell id="12" value="" style="line;strokeWidth=1;fillColor=none;align=left;verticalAlign=middle;spacingTop=-1;spacingLeft=3;spacingRight=3;rotatable=0;labelPosition=right;points=[];portConstraint=eastwest;" vertex="1" parent="10">
                    <mxGeometry y="40" width="240" height="8" as="geometry"/>
                </mxCell>
                <mxCell id="13" value="+ sendData(data:String, csc:Integer): String" style="text;strokeColor=none;fillColor=none;align=left;verticalAlign=top;spacingLeft=4;spacingRight=4;overflow=hidden;rotatable=0;points=[[0,0.5],[1,0.5]];portConstraint=eastwest;" vertex="1" parent="10">
                    <mxGeometry y="48" width="240" height="26" as="geometry"/>
                </mxCell>
                <mxCell id="18" value="+ pict():String" style="text;strokeColor=none;fillColor=none;align=left;verticalAlign=top;spacingLeft=4;spacingRight=4;overflow=hidden;rotatable=0;points=[[0,0.5],[1,0.5]];portConstraint=eastwest;" vertex="1" parent="10">
                    <mxGeometry y="74" width="240" height="26" as="geometry"/>
                </mxCell>
                <mxCell id="29" value="display" style="edgeStyle=none;html=1;" edge="1" parent="1" source="14" target="2">
                    <mxGeometry relative="1" as="geometry"/>
                </mxCell>
                <mxCell id="30" value="connection" style="edgeStyle=none;html=1;entryX=1;entryY=0.5;entryDx=0;entryDy=0;" edge="1" parent="1" source="14" target="13">
                    <mxGeometry relative="1" as="geometry">
                        <mxPoint x="310" y="243" as="targetPoint"/>
                    </mxGeometry>
                </mxCell>
                <mxCell id="35" value="crcCalculator" style="edgeStyle=none;html=1;entryX=0.529;entryY=1.026;entryDx=0;entryDy=0;entryPerimeter=0;" edge="1" parent="1" source="14" target="34">
                    <mxGeometry relative="1" as="geometry"/>
                </mxCell>
                <mxCell id="14" value="Dispositivo" style="swimlane;fontStyle=1;align=center;verticalAlign=top;childLayout=stackLayout;horizontal=1;startSize=26;horizontalStack=0;resizeParent=1;resizeParentMax=0;resizeLast=0;collapsible=1;marginBottom=0;" vertex="1" parent="1">
                    <mxGeometry x="360" y="158" width="160" height="60" as="geometry"/>
                </mxCell>
                <mxCell id="16" value="" style="line;strokeWidth=1;fillColor=none;align=left;verticalAlign=middle;spacingTop=-1;spacingLeft=3;spacingRight=3;rotatable=0;labelPosition=right;points=[];portConstraint=eastwest;" vertex="1" parent="14">
                    <mxGeometry y="26" width="160" height="8" as="geometry"/>
                </mxCell>
                <mxCell id="17" value="+ send(data: String): String" style="text;strokeColor=none;fillColor=none;align=left;verticalAlign=top;spacingLeft=4;spacingRight=4;overflow=hidden;rotatable=0;points=[[0,0.5],[1,0.5]];portConstraint=eastwest;" vertex="1" parent="14">
                    <mxGeometry y="34" width="160" height="26" as="geometry"/>
                </mxCell>
                <mxCell id="24" style="edgeStyle=none;html=1;endArrow=block;endFill=0;strokeWidth=1;endSize=12;" edge="1" parent="1" source="19" target="18">
                    <mxGeometry relative="1" as="geometry"/>
                </mxCell>
                <mxCell id="19" value="WifiConn" style="swimlane;fontStyle=1;align=center;verticalAlign=top;childLayout=stackLayout;horizontal=1;startSize=30;horizontalStack=0;resizeParent=1;resizeParentMax=0;resizeLast=0;collapsible=1;marginBottom=0;" vertex="1" parent="1">
                    <mxGeometry x="40" y="320" width="240" height="120" as="geometry"/>
                </mxCell>
                <mxCell id="20" value="- pict: String" style="text;strokeColor=none;fillColor=none;align=left;verticalAlign=top;spacingLeft=4;spacingRight=4;overflow=hidden;rotatable=0;points=[[0,0.5],[1,0.5]];portConstraint=eastwest;" vertex="1" parent="19">
                    <mxGeometry y="30" width="240" height="26" as="geometry"/>
                </mxCell>
                <mxCell id="21" value="" style="line;strokeWidth=1;fillColor=none;align=left;verticalAlign=middle;spacingTop=-1;spacingLeft=3;spacingRight=3;rotatable=0;labelPosition=right;points=[];portConstraint=eastwest;" vertex="1" parent="19">
                    <mxGeometry y="56" width="240" height="8" as="geometry"/>
                </mxCell>
                <mxCell id="22" value="+ sendData(data:String, csc:Integer): String" style="text;strokeColor=none;fillColor=none;align=left;verticalAlign=top;spacingLeft=4;spacingRight=4;overflow=hidden;rotatable=0;points=[[0,0.5],[1,0.5]];portConstraint=eastwest;" vertex="1" parent="19">
                    <mxGeometry y="64" width="240" height="26" as="geometry"/>
                </mxCell>
                <mxCell id="23" value="+ pict():String" style="text;strokeColor=none;fillColor=none;align=left;verticalAlign=top;spacingLeft=4;spacingRight=4;overflow=hidden;rotatable=0;points=[[0,0.5],[1,0.5]];portConstraint=eastwest;" vertex="1" parent="19">
                    <mxGeometry y="90" width="240" height="30" as="geometry"/>
                </mxCell>
                <mxCell id="25" value="CRC32_Calculator" style="swimlane;fontStyle=1;align=center;verticalAlign=top;childLayout=stackLayout;horizontal=1;startSize=26;horizontalStack=0;resizeParent=1;resizeParentMax=0;resizeLast=0;collapsible=1;marginBottom=0;" vertex="1" parent="1">
                    <mxGeometry x="540" y="470" width="190" height="60" as="geometry"/>
                </mxCell>
                <mxCell id="27" value="" style="line;strokeWidth=1;fillColor=none;align=left;verticalAlign=middle;spacingTop=-1;spacingLeft=3;spacingRight=3;rotatable=0;labelPosition=right;points=[];portConstraint=eastwest;" vertex="1" parent="25">
                    <mxGeometry y="26" width="190" height="8" as="geometry"/>
                </mxCell>
                <mxCell id="28" value="+ crcFor(data:String): Integer" style="text;strokeColor=none;fillColor=none;align=left;verticalAlign=top;spacingLeft=4;spacingRight=4;overflow=hidden;rotatable=0;points=[[0,0.5],[1,0.5]];portConstraint=eastwest;" vertex="1" parent="25">
                    <mxGeometry y="34" width="190" height="26" as="geometry"/>
                </mxCell>
                <mxCell id="31" value="CRC16_Calculator" style="swimlane;fontStyle=1;align=center;verticalAlign=top;childLayout=stackLayout;horizontal=1;startSize=26;horizontalStack=0;resizeParent=1;resizeParentMax=0;resizeLast=0;collapsible=1;marginBottom=0;" vertex="1" parent="1">
                    <mxGeometry x="320" y="40" width="200" height="60" as="geometry"/>
                </mxCell>
                <mxCell id="33" value="" style="line;strokeWidth=1;fillColor=none;align=left;verticalAlign=middle;spacingTop=-1;spacingLeft=3;spacingRight=3;rotatable=0;labelPosition=right;points=[];portConstraint=eastwest;" vertex="1" parent="31">
                    <mxGeometry y="26" width="200" height="8" as="geometry"/>
                </mxCell>
                <mxCell id="34" value="+ crcFor(data: String): Integer" style="text;strokeColor=none;fillColor=none;align=left;verticalAlign=top;spacingLeft=4;spacingRight=4;overflow=hidden;rotatable=0;points=[[0,0.5],[1,0.5]];portConstraint=eastwest;" vertex="1" parent="31">
                    <mxGeometry y="34" width="200" height="26" as="geometry"/>
                </mxCell>
                <mxCell id="36" value="Ringer" style="swimlane;fontStyle=1;align=center;verticalAlign=top;childLayout=stackLayout;horizontal=1;startSize=26;horizontalStack=0;resizeParent=1;resizeParentMax=0;resizeLast=0;collapsible=1;marginBottom=0;" vertex="1" parent="1">
                    <mxGeometry x="600" y="170" width="160" height="60" as="geometry"/>
                </mxCell>
                <mxCell id="38" value="" style="line;strokeWidth=1;fillColor=none;align=left;verticalAlign=middle;spacingTop=-1;spacingLeft=3;spacingRight=3;rotatable=0;labelPosition=right;points=[];portConstraint=eastwest;" vertex="1" parent="36">
                    <mxGeometry y="26" width="160" height="8" as="geometry"/>
                </mxCell>
                <mxCell id="39" value="+ ring(): void" style="text;strokeColor=none;fillColor=none;align=left;verticalAlign=top;spacingLeft=4;spacingRight=4;overflow=hidden;rotatable=0;points=[[0,0.5],[1,0.5]];portConstraint=eastwest;" vertex="1" parent="36">
                    <mxGeometry y="34" width="160" height="26" as="geometry"/>
                </mxCell>
                <mxCell id="41" value="ringer" style="edgeStyle=none;html=1;entryX=0;entryY=0.375;entryDx=0;entryDy=0;entryPerimeter=0;" edge="1" parent="1" target="38">
                    <mxGeometry relative="1" as="geometry">
                        <mxPoint x="520" y="198" as="sourcePoint"/>
                        <mxPoint x="630" y="200" as="targetPoint"/>
                    </mxGeometry>
                </mxCell>
            </root>
        </mxGraphModel>
    </diagram>
    <diagram id="W5W3rTeMH8Zr8E-TGDIl" name="PÃ¡gina-2">
        <mxGraphModel dx="642" dy="617" grid="1" gridSize="10" guides="1" tooltips="1" connect="1" arrows="1" fold="1" page="1" pageScale="1" pageWidth="827" pageHeight="1169" math="0" shadow="0">
            <root>
                <mxCell id="9iWW0HXkihZB9JbDwhXM-0"/>
                <mxCell id="9iWW0HXkihZB9JbDwhXM-1" parent="9iWW0HXkihZB9JbDwhXM-0"/>
                <mxCell id="b9n5zkgyaD2hAyMsx8Qj-0" value="Display" style="swimlane;fontStyle=1;align=center;verticalAlign=top;childLayout=stackLayout;horizontal=1;startSize=26;horizontalStack=0;resizeParent=1;resizeParentMax=0;resizeLast=0;collapsible=1;marginBottom=0;" vertex="1" parent="9iWW0HXkihZB9JbDwhXM-1">
                    <mxGeometry x="340" y="340" width="200" height="60" as="geometry"/>
                </mxCell>
                <mxCell id="b9n5zkgyaD2hAyMsx8Qj-1" value="" style="line;strokeWidth=1;fillColor=none;align=left;verticalAlign=middle;spacingTop=-1;spacingLeft=3;spacingRight=3;rotatable=0;labelPosition=right;points=[];portConstraint=eastwest;" vertex="1" parent="b9n5zkgyaD2hAyMsx8Qj-0">
                    <mxGeometry y="26" width="200" height="8" as="geometry"/>
                </mxCell>
                <mxCell id="b9n5zkgyaD2hAyMsx8Qj-2" value="+ showBanner(img: String): String" style="text;strokeColor=none;fillColor=none;align=left;verticalAlign=top;spacingLeft=4;spacingRight=4;overflow=hidden;rotatable=0;points=[[0,0.5],[1,0.5]];portConstraint=eastwest;" vertex="1" parent="b9n5zkgyaD2hAyMsx8Qj-0">
                    <mxGeometry y="34" width="200" height="26" as="geometry"/>
                </mxCell>
                <mxCell id="b9n5zkgyaD2hAyMsx8Qj-3" value="4GConnection" style="swimlane;fontStyle=1;align=center;verticalAlign=top;childLayout=stackLayout;horizontal=1;startSize=26;horizontalStack=0;resizeParent=1;resizeParentMax=0;resizeLast=0;collapsible=1;marginBottom=0;" vertex="1" parent="9iWW0HXkihZB9JbDwhXM-1">
                    <mxGeometry x="260" y="520" width="240" height="86" as="geometry"/>
                </mxCell>
                <mxCell id="b9n5zkgyaD2hAyMsx8Qj-4" value="- symb: String" style="text;strokeColor=none;fillColor=none;align=left;verticalAlign=top;spacingLeft=4;spacingRight=4;overflow=hidden;rotatable=0;points=[[0,0.5],[1,0.5]];portConstraint=eastwest;" vertex="1" parent="b9n5zkgyaD2hAyMsx8Qj-3">
                    <mxGeometry y="26" width="240" height="26" as="geometry"/>
                </mxCell>
                <mxCell id="b9n5zkgyaD2hAyMsx8Qj-5" value="" style="line;strokeWidth=1;fillColor=none;align=left;verticalAlign=middle;spacingTop=-1;spacingLeft=3;spacingRight=3;rotatable=0;labelPosition=right;points=[];portConstraint=eastwest;" vertex="1" parent="b9n5zkgyaD2hAyMsx8Qj-3">
                    <mxGeometry y="52" width="240" height="8" as="geometry"/>
                </mxCell>
                <mxCell id="b9n5zkgyaD2hAyMsx8Qj-6" value="+ transmit(data: String, crc: Integer): String" style="text;strokeColor=none;fillColor=none;align=left;verticalAlign=top;spacingLeft=4;spacingRight=4;overflow=hidden;rotatable=0;points=[[0,0.5],[1,0.5]];portConstraint=eastwest;" vertex="1" parent="b9n5zkgyaD2hAyMsx8Qj-3">
                    <mxGeometry y="60" width="240" height="26" as="geometry"/>
                </mxCell>
                <mxCell id="b9n5zkgyaD2hAyMsx8Qj-7" value="&lt;&lt;interface&gt;&gt;&#10;Conection" style="swimlane;fontStyle=1;align=center;verticalAlign=top;childLayout=stackLayout;horizontal=1;startSize=40;horizontalStack=0;resizeParent=1;resizeParentMax=0;resizeLast=0;collapsible=1;marginBottom=0;" vertex="1" parent="9iWW0HXkihZB9JbDwhXM-1">
                    <mxGeometry x="40" y="140" width="240" height="100" as="geometry"/>
                </mxCell>
                <mxCell id="b9n5zkgyaD2hAyMsx8Qj-8" value="" style="line;strokeWidth=1;fillColor=none;align=left;verticalAlign=middle;spacingTop=-1;spacingLeft=3;spacingRight=3;rotatable=0;labelPosition=right;points=[];portConstraint=eastwest;" vertex="1" parent="b9n5zkgyaD2hAyMsx8Qj-7">
                    <mxGeometry y="40" width="240" height="8" as="geometry"/>
                </mxCell>
                <mxCell id="b9n5zkgyaD2hAyMsx8Qj-9" value="+ sendData(data:String, csc:Integer): String" style="text;strokeColor=none;fillColor=none;align=left;verticalAlign=top;spacingLeft=4;spacingRight=4;overflow=hidden;rotatable=0;points=[[0,0.5],[1,0.5]];portConstraint=eastwest;" vertex="1" parent="b9n5zkgyaD2hAyMsx8Qj-7">
                    <mxGeometry y="48" width="240" height="26" as="geometry"/>
                </mxCell>
                <mxCell id="b9n5zkgyaD2hAyMsx8Qj-10" value="+ pict():String" style="text;strokeColor=none;fillColor=none;align=left;verticalAlign=top;spacingLeft=4;spacingRight=4;overflow=hidden;rotatable=0;points=[[0,0.5],[1,0.5]];portConstraint=eastwest;" vertex="1" parent="b9n5zkgyaD2hAyMsx8Qj-7">
                    <mxGeometry y="74" width="240" height="26" as="geometry"/>
                </mxCell>
                <mxCell id="b9n5zkgyaD2hAyMsx8Qj-11" value="display" style="edgeStyle=none;html=1;" edge="1" parent="9iWW0HXkihZB9JbDwhXM-1" source="b9n5zkgyaD2hAyMsx8Qj-14" target="b9n5zkgyaD2hAyMsx8Qj-0">
                    <mxGeometry relative="1" as="geometry"/>
                </mxCell>
                <mxCell id="b9n5zkgyaD2hAyMsx8Qj-12" value="connection" style="edgeStyle=none;html=1;entryX=1;entryY=0.5;entryDx=0;entryDy=0;" edge="1" parent="9iWW0HXkihZB9JbDwhXM-1" source="b9n5zkgyaD2hAyMsx8Qj-14" target="b9n5zkgyaD2hAyMsx8Qj-9">
                    <mxGeometry relative="1" as="geometry">
                        <mxPoint x="310" y="243" as="targetPoint"/>
                    </mxGeometry>
                </mxCell>
                <mxCell id="b9n5zkgyaD2hAyMsx8Qj-13" value="crcCalculator" style="edgeStyle=none;html=1;entryX=0.529;entryY=1.026;entryDx=0;entryDy=0;entryPerimeter=0;" edge="1" parent="9iWW0HXkihZB9JbDwhXM-1" source="b9n5zkgyaD2hAyMsx8Qj-14" target="b9n5zkgyaD2hAyMsx8Qj-28">
                    <mxGeometry relative="1" as="geometry"/>
                </mxCell>
                <mxCell id="b9n5zkgyaD2hAyMsx8Qj-14" value="Dispositivo" style="swimlane;fontStyle=1;align=center;verticalAlign=top;childLayout=stackLayout;horizontal=1;startSize=26;horizontalStack=0;resizeParent=1;resizeParentMax=0;resizeLast=0;collapsible=1;marginBottom=0;" vertex="1" parent="9iWW0HXkihZB9JbDwhXM-1">
                    <mxGeometry x="360" y="158" width="160" height="60" as="geometry"/>
                </mxCell>
                <mxCell id="b9n5zkgyaD2hAyMsx8Qj-15" value="" style="line;strokeWidth=1;fillColor=none;align=left;verticalAlign=middle;spacingTop=-1;spacingLeft=3;spacingRight=3;rotatable=0;labelPosition=right;points=[];portConstraint=eastwest;" vertex="1" parent="b9n5zkgyaD2hAyMsx8Qj-14">
                    <mxGeometry y="26" width="160" height="8" as="geometry"/>
                </mxCell>
                <mxCell id="b9n5zkgyaD2hAyMsx8Qj-16" value="+ send(data: String): String" style="text;strokeColor=none;fillColor=none;align=left;verticalAlign=top;spacingLeft=4;spacingRight=4;overflow=hidden;rotatable=0;points=[[0,0.5],[1,0.5]];portConstraint=eastwest;" vertex="1" parent="b9n5zkgyaD2hAyMsx8Qj-14">
                    <mxGeometry y="34" width="160" height="26" as="geometry"/>
                </mxCell>
                <mxCell id="b9n5zkgyaD2hAyMsx8Qj-17" style="edgeStyle=none;html=1;endArrow=block;endFill=0;strokeWidth=1;endSize=12;" edge="1" parent="9iWW0HXkihZB9JbDwhXM-1" source="b9n5zkgyaD2hAyMsx8Qj-18" target="b9n5zkgyaD2hAyMsx8Qj-10">
                    <mxGeometry relative="1" as="geometry"/>
                </mxCell>
                <mxCell id="b9n5zkgyaD2hAyMsx8Qj-18" value="WifiConn" style="swimlane;fontStyle=1;align=center;verticalAlign=top;childLayout=stackLayout;horizontal=1;startSize=30;horizontalStack=0;resizeParent=1;resizeParentMax=0;resizeLast=0;collapsible=1;marginBottom=0;" vertex="1" parent="9iWW0HXkihZB9JbDwhXM-1">
                    <mxGeometry x="40" y="320" width="240" height="120" as="geometry"/>
                </mxCell>
                <mxCell id="b9n5zkgyaD2hAyMsx8Qj-19" value="- pict: String" style="text;strokeColor=none;fillColor=none;align=left;verticalAlign=top;spacingLeft=4;spacingRight=4;overflow=hidden;rotatable=0;points=[[0,0.5],[1,0.5]];portConstraint=eastwest;" vertex="1" parent="b9n5zkgyaD2hAyMsx8Qj-18">
                    <mxGeometry y="30" width="240" height="26" as="geometry"/>
                </mxCell>
                <mxCell id="b9n5zkgyaD2hAyMsx8Qj-20" value="" style="line;strokeWidth=1;fillColor=none;align=left;verticalAlign=middle;spacingTop=-1;spacingLeft=3;spacingRight=3;rotatable=0;labelPosition=right;points=[];portConstraint=eastwest;" vertex="1" parent="b9n5zkgyaD2hAyMsx8Qj-18">
                    <mxGeometry y="56" width="240" height="8" as="geometry"/>
                </mxCell>
                <mxCell id="b9n5zkgyaD2hAyMsx8Qj-21" value="+ sendData(data:String, csc:Integer): String" style="text;strokeColor=none;fillColor=none;align=left;verticalAlign=top;spacingLeft=4;spacingRight=4;overflow=hidden;rotatable=0;points=[[0,0.5],[1,0.5]];portConstraint=eastwest;" vertex="1" parent="b9n5zkgyaD2hAyMsx8Qj-18">
                    <mxGeometry y="64" width="240" height="26" as="geometry"/>
                </mxCell>
                <mxCell id="b9n5zkgyaD2hAyMsx8Qj-22" value="+ pict():String" style="text;strokeColor=none;fillColor=none;align=left;verticalAlign=top;spacingLeft=4;spacingRight=4;overflow=hidden;rotatable=0;points=[[0,0.5],[1,0.5]];portConstraint=eastwest;" vertex="1" parent="b9n5zkgyaD2hAyMsx8Qj-18">
                    <mxGeometry y="90" width="240" height="30" as="geometry"/>
                </mxCell>
                <mxCell id="b9n5zkgyaD2hAyMsx8Qj-23" value="CRC32_Calculator" style="swimlane;fontStyle=1;align=center;verticalAlign=top;childLayout=stackLayout;horizontal=1;startSize=26;horizontalStack=0;resizeParent=1;resizeParentMax=0;resizeLast=0;collapsible=1;marginBottom=0;" vertex="1" parent="9iWW0HXkihZB9JbDwhXM-1">
                    <mxGeometry x="540" y="470" width="190" height="60" as="geometry"/>
                </mxCell>
                <mxCell id="b9n5zkgyaD2hAyMsx8Qj-24" value="" style="line;strokeWidth=1;fillColor=none;align=left;verticalAlign=middle;spacingTop=-1;spacingLeft=3;spacingRight=3;rotatable=0;labelPosition=right;points=[];portConstraint=eastwest;" vertex="1" parent="b9n5zkgyaD2hAyMsx8Qj-23">
                    <mxGeometry y="26" width="190" height="8" as="geometry"/>
                </mxCell>
                <mxCell id="b9n5zkgyaD2hAyMsx8Qj-25" value="+ crcFor(data:String): Integer" style="text;strokeColor=none;fillColor=none;align=left;verticalAlign=top;spacingLeft=4;spacingRight=4;overflow=hidden;rotatable=0;points=[[0,0.5],[1,0.5]];portConstraint=eastwest;" vertex="1" parent="b9n5zkgyaD2hAyMsx8Qj-23">
                    <mxGeometry y="34" width="190" height="26" as="geometry"/>
                </mxCell>
                <mxCell id="b9n5zkgyaD2hAyMsx8Qj-26" value="CRC16_Calculator" style="swimlane;fontStyle=1;align=center;verticalAlign=top;childLayout=stackLayout;horizontal=1;startSize=26;horizontalStack=0;resizeParent=1;resizeParentMax=0;resizeLast=0;collapsible=1;marginBottom=0;" vertex="1" parent="9iWW0HXkihZB9JbDwhXM-1">
                    <mxGeometry x="320" y="40" width="200" height="60" as="geometry"/>
                </mxCell>
                <mxCell id="b9n5zkgyaD2hAyMsx8Qj-27" value="" style="line;strokeWidth=1;fillColor=none;align=left;verticalAlign=middle;spacingTop=-1;spacingLeft=3;spacingRight=3;rotatable=0;labelPosition=right;points=[];portConstraint=eastwest;" vertex="1" parent="b9n5zkgyaD2hAyMsx8Qj-26">
                    <mxGeometry y="26" width="200" height="8" as="geometry"/>
                </mxCell>
                <mxCell id="b9n5zkgyaD2hAyMsx8Qj-28" value="+ crcFor(data: String): Integer" style="text;strokeColor=none;fillColor=none;align=left;verticalAlign=top;spacingLeft=4;spacingRight=4;overflow=hidden;rotatable=0;points=[[0,0.5],[1,0.5]];portConstraint=eastwest;" vertex="1" parent="b9n5zkgyaD2hAyMsx8Qj-26">
                    <mxGeometry y="34" width="200" height="26" as="geometry"/>
                </mxCell>
                <mxCell id="b9n5zkgyaD2hAyMsx8Qj-29" value="Ringer" style="swimlane;fontStyle=1;align=center;verticalAlign=top;childLayout=stackLayout;horizontal=1;startSize=26;horizontalStack=0;resizeParent=1;resizeParentMax=0;resizeLast=0;collapsible=1;marginBottom=0;" vertex="1" parent="9iWW0HXkihZB9JbDwhXM-1">
                    <mxGeometry x="600" y="170" width="160" height="60" as="geometry"/>
                </mxCell>
                <mxCell id="b9n5zkgyaD2hAyMsx8Qj-30" value="" style="line;strokeWidth=1;fillColor=none;align=left;verticalAlign=middle;spacingTop=-1;spacingLeft=3;spacingRight=3;rotatable=0;labelPosition=right;points=[];portConstraint=eastwest;" vertex="1" parent="b9n5zkgyaD2hAyMsx8Qj-29">
                    <mxGeometry y="26" width="160" height="8" as="geometry"/>
                </mxCell>
                <mxCell id="b9n5zkgyaD2hAyMsx8Qj-31" value="+ ring(): void" style="text;strokeColor=none;fillColor=none;align=left;verticalAlign=top;spacingLeft=4;spacingRight=4;overflow=hidden;rotatable=0;points=[[0,0.5],[1,0.5]];portConstraint=eastwest;" vertex="1" parent="b9n5zkgyaD2hAyMsx8Qj-29">
                    <mxGeometry y="34" width="160" height="26" as="geometry"/>
                </mxCell>
                <mxCell id="b9n5zkgyaD2hAyMsx8Qj-32" value="ringer" style="edgeStyle=none;html=1;entryX=0;entryY=0.375;entryDx=0;entryDy=0;entryPerimeter=0;" edge="1" parent="9iWW0HXkihZB9JbDwhXM-1" target="b9n5zkgyaD2hAyMsx8Qj-30">
                    <mxGeometry relative="1" as="geometry">
                        <mxPoint x="520" y="198" as="sourcePoint"/>
                        <mxPoint x="630" y="200" as="targetPoint"/>
                    </mxGeometry>
                </mxCell>
            </root>
        </mxGraphModel>
    </diagram>
</mxfile>